<svg xmlns="http://www.w3.org/2000/svg" viewBox="0 0 24 24" fill="#339933" role="img" aria-label="Node.js">
  <path d="M11.998 24c-.321 0-.641-.084-.922-.247l-2.936-1.737c-.438-.245-.224-.332-.08-.383.585-.203.703-.25 1.328-.604.065-.037.151-.023.218.017l2.256 1.339a.29.29 0 0 0 .272 0l8.795-5.076a.277.277 0 0 0 .134-.238V6.921a.283.283 0 0 0-.137-.242l-8.791-5.072a-.278.278 0 0 0-.271 0L3.075 6.68a.284.284 0 0 0-.139.241v10.15a.27.27 0 0 0 .139.235l2.409 1.392c1.307.654 2.108-.116 2.108-.891V7.787c0-.142.114-.253.256-.253h1.115c.139 0 .255.112.255.253v10.021c0 1.745-.95 2.745-2.604 2.745-.508 0-.909 0-2.026-.551L2.28 18.675a1.856 1.856 0 0 1-.922-1.604V6.921c0-.659.353-1.275.922-1.603l8.795-5.082a1.962 1.962 0 0 1 1.846 0l8.794 5.082c.57.328.924.944.924 1.603v10.15a1.86 1.86 0 0 1-.924 1.604l-8.794 5.078a1.857 1.857 0 0 1-.924.247zm2.715-6.916c-3.852 0-4.657-1.769-4.657-3.262 0-.14.114-.253.256-.253h1.136c.127 0 .232.091.251.215.172 1.164.686 1.752 3.014 1.752 1.852 0 2.639-.419 2.639-1.401 0-.566-.224-.985-3.117-1.248-2.414-.224-3.911-.773-3.911-2.702 0-1.782 1.505-2.839 4.026-2.839 2.829 0 4.223.982 4.401 3.089a.253.253 0 0 1-.251.275h-1.129a.251.251 0 0 1-.249-.217c-.276-1.232-1.066-1.63-2.772-1.63-2.051 0-2.287.716-2.287 1.252 0 .653.283.842 3.011 1.208 2.709.361 4.017.871 4.017 2.747 0 1.912-1.593 3.024-4.331 3.024z"/>
</svg>
