<svg xmlns="http://www.w3.org/2000/svg" viewBox="0 0 24 24" fill="#61DAFB" role="img" aria-label="React">
  <path d="M12 10.11c1.03 0 1.87.84 1.87 1.89 0 1-.84 1.85-1.87 1.85-1.03 0-1.87-.85-1.87-1.85 0-1.05.84-1.89 1.87-1.89M7.37 20c.63.38 2.01-.2 3.6-1.7-.52-.59-1.03-1.23-1.51-1.9a22.7 22.7 0 0 1-2.4-.36c-.51 2.14-.32 3.61.31 3.96m.71-5.74l-.29-.51a15.4 15.4 0 0 1-1.87-.95 15.4 15.4 0 0 1 1.87-.95l.29-.51.3.52c.57.96 1.2 1.85 1.87 2.65-.67.8-1.3 1.69-1.87 2.65l-.3.52M12 3.04c.67.8 1.2 1.69 1.87 2.65-.67.8-1.3 1.69-1.87 2.65-.67-.8-1.2-1.69-1.87-2.65.67-.8 1.2-1.69 1.87-2.65M8.53 7.68l-.29.51a15.4 15.4 0 0 1-1.87.95 15.4 15.4 0 0 1 1.87.95l.29.51-.3.52a22.7 22.7 0 0 1-2.4.36c.48-.67.99-1.31 1.51-1.9-1.59-1.5-2.97-2.08-3.6-1.7-.63.35-.82 1.82-.31 3.96.82-.14 1.62-.35 2.4-.36l.3-.52m7.14 12.28c.63-.35.82-1.82.31-3.96a22.7 22.7 0 0 1-2.4.36c.48.67.99 1.31 1.51 1.9-1.59 1.5-2.97 2.08-3.6 1.7-.63-.35-.82-1.82-.31-3.96.82.14 1.62.35 2.4.36l.3.52.29-.51a15.4 15.4 0 0 1 1.87-.95 15.4 15.4 0 0 1-1.87-.95l-.29-.51.3-.52c.78.01 1.58.22 2.4.36M16.63 20c-.63.38-2.01-.2-3.6-1.7.52-.59 1.03-1.23 1.51-1.9a22.7 22.7 0 0 0 2.4-.36c.51 2.14.32 3.61-.31 3.96M12 20.96c-.67-.8-1.2-1.69-1.87-2.65.67-.8 1.3-1.69 1.87-2.65.67.8 1.2 1.69 1.87 2.65-.67.8-1.2 1.69-1.87 2.65m4.47-10.28l.29-.51a15.4 15.4 0 0 0 1.87-.95 15.4 15.4 0 0 0-1.87-.95l-.29-.51.3-.52c.78-.01 1.58-.22 2.4-.36-.48-.67-.99-1.31-1.51-1.9 1.59-1.5 2.97-2.08 3.6-1.7.63.35.82 1.82.31 3.96-.82-.14-1.62-.35-2.4-.36l-.3-.52"/>
</svg>
