<svg xmlns="http://www.w3.org/2000/svg" viewBox="0 0 24 24" role="img" aria-label="Vite">
  <path fill="#41D1FF" d="m8.286 10.578.512-8.657a.306.306 0 0 1 .247-.282L13.377.006a.306.306 0 0 1 .371.192l2.337 6.114a7.494 7.494 0 0 0-3.67-1.01l-1.658-5.837-1.405 5.837a7.52 7.52 0 0 0-2.686-.175z"/>
  <path fill="#BD34FE" d="M15.232 8.797 17.57 2.683a.306.306 0 0 1 .371-.192l4.332 1.633a.306.306 0 0 1 .247.282l.512 8.657a7.506 7.506 0 0 0-7.8-4.266"/>
  <path fill="#FFBD7F" d="M8.286 10.578a7.507 7.507 0 0 0 7.8 4.266l-.262 4.454a.306.306 0 0 1-.425.284l-5.181-2.127a.306.306 0 0 1-.188-.284l-.744-6.593"/>
</svg>
